<?xml version="1.0" encoding="utf-8" ?><svg xmlns="http://www.w3.org/2000/svg" width="1024" height="1024" viewBox="0 0 1024 1024"><rect width="1024" height="1024" rx="228" fill="#0d9488"/><g transform="translate(1024,0) scale(-1,1)"><path fill="#ffffff" d="M537.843 362.205C539.962 361.846 548.469 361.769 550.786 361.804C576.553 362.201 601.189 369.142 622.91 383.156C633.951 390.279 641.822 400.008 651.017 409.386L682.278 440.984C726.951 485.884 772.592 531.396 816.585 576.907C816.96 587.698 816.643 600.559 816.642 611.48L816.505 680.406C810.915 675.161 804.559 668.36 799.04 662.758L759.932 622.912L654.939 516.939C638.564 499.982 622.044 483.164 605.382 466.489C598.343 459.462 591.437 452.046 584.051 445.419C564.566 427.938 539.502 427.426 517.56 440.423C503.56 448.8 493.496 462.432 489.614 478.278C485.349 494.488 487.815 511.733 496.453 526.096C504.899 540.268 520.574 552.745 536.694 556.4C571.434 564.275 599.582 551.114 628.003 533.931C635.415 540.026 648.661 553.887 655.529 561.017C663.767 569.469 672.071 577.857 680.441 586.179L793.107 699.323C800.734 706.776 809.603 715.572 816.587 723.525C816.925 756.545 816.91 789.569 816.544 822.589C802.333 807.258 784.983 790.275 770.148 775.381L673.202 678.243C665.913 686.155 656.89 694.797 649.208 702.476L595.193 756.065C611.17 756.018 630.84 755.771 646.528 756.469C628.517 773.593 610.116 792.883 592.227 810.493C580.454 811.201 561.904 810.582 549.806 810.56L469.995 810.562C488.786 793.409 507.032 772.665 525.849 755.037L549.669 755.088C573.81 731.662 597.646 707.922 621.168 683.874C599.713 683.871 576.468 684.323 555.167 683.648C529.323 657.024 503.289 630.586 477.066 604.336C461.502 588.638 441.625 571.669 430.113 553.604C420.481 538.361 414.612 521.046 412.99 503.088C409.551 468.664 420.999 436.082 442.982 409.742C467.965 379.808 499.774 365.914 537.843 362.205Z"/><path fill="#ffffff" d="M412.304 190.202C440.425 189.845 472.765 189.496 500.782 190.161C508.398 197.459 515.89 205.406 523.479 212.83L586.03 273.965C575.706 277.882 568.272 280.091 558.652 286.487C541.058 298.187 529.63 316.33 525.405 336.901C454.826 339.189 392.985 398.925 386.938 469.091C384.825 493.932 390.425 518.821 402.975 540.363C413.939 559.341 428.267 572.28 443.3 587.73L503.138 648.681C512.443 658.105 526.157 671.008 534.455 680.906C509.64 705.609 483.546 731.231 459.362 756.466L506.189 756.492C488.779 774.829 470.144 792.16 453.037 810.472C439.96 810.903 425.154 810.584 411.984 810.566L340.75 810.597L328.368 810.547C338.732 800.786 349.452 789.485 359.791 779.45C367.165 772.294 377.843 762.414 384.204 755.143C387.874 754.926 408.887 754.815 412.292 755.294C435.95 733.927 461.661 706.822 484.766 683.965C472.07 683.939 455.104 684.36 442.815 683.44C424.403 666.098 406.134 646.467 388.048 628.616L359.028 599.755C353.282 594.085 346.094 587.958 341.214 581.571C289.568 513.974 298.883 407.928 357.434 347.498C365.801 338.863 373.866 330.005 381.858 321.157L202.946 321.016C226.408 296.014 252.792 272.066 276.653 246.595L352.094 246.64C358.149 240.597 409.002 191.448 412.304 190.202Z"/><path fill="#0d9488" d="M402.74 250.414C420.887 246.954 438.402 258.861 441.862 277.008C445.321 295.154 433.415 312.67 415.268 316.129C397.122 319.589 379.606 307.683 376.146 289.536C372.687 271.389 384.593 253.873 402.74 250.414Z"/></g></svg>